#!OML:ASF E:\Mandelcareful walks\Project 1\Capture day 1\Session 1\Subject1.ASF
:FULLY-SPECIFIED
:DEGREES
672
root -4.51907 16.3931 -2.01741 -352.796 94.7614 -367.548
lowerback -0.600902 1.87026 -8.04536
upperback 0.963147 2.60702 -0.210562
thorax 0.988921 1.24064 4.31887
lowerneck -19.5971 7.77139 4.08062
upperneck 29.7047 13.5187 -7.83503
head 14.3486 5.49489 -1.27745
rclavicle 9.74045e-015 -1.25234e-014
rhumerus -31.1108 -10.861 -79.0086
rradius 41.7075
rwrist -14.3179
rhand -7.84637 -34.0315
rfingers 7.12502
rthumb 18.0567 -63.2133
lclavicle 9.74045e-015 -1.25234e-014
lhumerus -25.0487 8.26038 69.894
lradius 22.4709
lwrist 7.00242
lhand -26.6723 -6.65718
lfingers 7.12502
lthumb -0.103589 23.3225
rfemur -34.5821 -5.88282 7.15346
rtibia 30.8422
rfoot -11.0512 -14.4612
rtoes -15.0665
lfemur -21.5563 -2.62151 -20.4411
ltibia 36.0838
lfoot -24.501 5.81363
ltoes -4.58939
673
root -4.39245 16.4179 -2.0025 -351.563 96.0035 -366.542
lowerback -1.13279 1.76334 -7.80952
upperback 0.606236 2.49124 -0.177382
thorax 0.940726 1.19565 4.23307
lowerneck -19.14 7.64881 4.21315
upperneck 30.0152 13.3884 -7.7961
head 14.3825 5.4839 -1.32407
rclavicle 8.34896e-015 2.06736e-014
rhumerus -31.3698 -10.4596 -79.1359
rradius 42.1557
rwrist -14.4884
rhand -7.44897 -34.2067
rfingers 7.12502
rthumb 18.439 -63.3528
lclavicle 8.34896e-015 2.06736e-014
lhumerus -25.3543 5.39902 71.2788
lradius 23.6173
lwrist 8.52832
lhand -25.8704 -5.95864
lfingers 7.12502
lthumb 0.670957 24.0201
rfemur -34.4283 -3.85184 6.01783
rtibia 27.9487
rfoot -10.9947 -14.407
rtoes -18.971
lfemur -20.9086 -3.3735 -20.1885
ltibia 35.0337
lfoot -24.1537 5.52342
ltoes -4.42405
674
root -4.26963 16.436 -1.98961 -351.25 97.043 -366.611
lowerback -2.01036 1.69878 -7.65855
upperback 0.474294 2.47368 -0.109307
thorax 1.30246 1.17699 4.24885
lowerneck -19.069 7.58877 4.2134
upperneck 30.1425 13.3958 -7.91685
head 14.4371 5.47988 -1.37114
rclavicle -1.54058e-015 -1.68967e-014
rhumerus -31.0602 -10.0112 -79.2288
rradius 42.5741
rwrist -14.6264
rhand -7.61538 -33.7533
rfingers 7.12502
rthumb 18.2789 -62.9145
lclavicle -1.54058e-015 -1.68967e-014
lhumerus -25.3186 2.46206 73.0445
lradius 25.0058
lwrist 10.3319
lhand -25.2523 -5.06313
lfingers 7.12502
lthumb 1.26785 24.9128
rfemur -34.5449 -1.76461 4.63184
rtibia 25.3838
rfoot -10.981 -14.0478
rtoes -23.0862
lfemur -20.4138 -4.08717 -20.0479
ltibia 33.9532
lfoot -23.8839 5.28202
ltoes -3.80169
675
root -4.14529 16.4489 -1.96781 -351.751 98.3022 -367.424
lowerback -2.77884 1.62218 -7.58117
upperback 0.436134 2.43493 -0.0549012
thorax 1.7007 1.14362 4.28891
lowerneck -19.2822 7.48863 4.03387
upperneck 30.3891 13.352 -7.86908
head 14.5722 5.43963 -1.32131
rclavicle 8.84592e-015 1.2424e-014
rhumerus -30.5994 -9.70239 -79.1845
rradius 42.812
rwrist -14.7635
rhand -8.1035 -32.8636
rfingers 7.12502
rthumb 17.8092 -62.0682
lclavicle 8.84592e-015 1.2424e-014
lhumerus -25.258 -0.790536 74.9557
lradius 26.7015
lwrist 12.247
lhand -24.7525 -5.76591
lfingers 7.12502
lthumb 1.75059 24.2066
rfemur -34.5354 0.0979798 3.10744
rtibia 23.2243
rfoot -11.163 -13.5064
rtoes -25.5449
lfemur -19.8519 -4.9313 -19.9536
ltibia 32.8544
lfoot -23.6294 4.92804
ltoes -3.08454
676
root -4.01357 16.4612 -1.93969 -352.198 99.6495 -368.08
lowerback -3.44302 1.59188 -7.49734
upperback 0.254577 2.44403 -0.0917949
thorax 1.88944 1.14743 4.22472
lowerneck -18.9643 7.29599 4.16488
upperneck 30.654 13.0984 -7.82456
head 14.6059 5.37271 -1.38467
rclavicle -2.92959e-014 5.36719e-015
rhumerus -30.5954 -9.8747 -78.9987
rradius 42.7195
rwrist -14.6911
rhand -8.99222 -30.6029
rfingers 7.12502
rthumb 16.9539 -59.8829
lclavicle -2.92959e-014 5.36719e-015
lhumerus -25.647 -4.05116 76.5625
lradius 28.4018
lwrist 13.5414
lhand -23.8131 -7.1636
lfingers 7.12502
lthumb 2.65788 22.7996
rfemur -34.5373 1.53527 1.744
rtibia 21.59
rfoot -11.103 -12.5701
rtoes -27.2907
lfemur -19.15 -5.8023 -19.8256
ltibia 31.7029
lfoot -23.3613 4.5652
ltoes -2.64917
677
root -3.87105 16.4732 -1.90925 -352.788 100.762 -368.773
lowerback -4.03483 1.51154 -7.5557
upperback 0.163399 2.38753 -0.0426893
thorax 2.13038 1.11194 4.32612
lowerneck -18.8088 7.28416 4.11364
upperneck 30.808 13.1799 -7.86063
head 14.6477 5.41072 -1.37801
rclavicle 1.32937e-015 2.20651e-014
rhumerus -30.2995 -9.73019 -78.8737
rradius 42.4912
rwrist -14.539
rhand -9.3387 -29.7021
rfingers 7.12502
rthumb 16.6204 -59.0105
lclavicle 1.32937e-015 2.20651e-014
lhumerus -26.0953 -6.16932 77.9795
lradius 30.1329
lwrist 14.1609
lhand -22.5726 -7.72977
lfingers 7.12502
lthumb 3.85582 22.2151
rfemur -34.6812 2.83549 0.484125
rtibia 20.3679
rfoot -10.6561 -11.2926
rtoes -29.731
lfemur -18.2296 -6.54507 -19.739
ltibia 30.5077
lfoot -23.1916 4.35044
ltoes -2.3325
678
root -3.72274 16.4848 -1.87393 -353.418 101.793 -369.434
lowerback -4.43616 1.537 -7.55305
upperback 0.0265124 2.45444 -0.101739
thorax 2.20776 1.14733 4.27847
lowerneck -18.6986 7.2653 4.1505
upperneck 31.0314 13.2287 -7.87542
head 14.7332 5.44514 -1.38177
rclavicle 4.66616e-014 9.44227e-016
rhumerus -30.1671 -9.72206 -78.7956
rradius 42.3621
rwrist -14.4715
rhand -8.94453 -30.425
rfingers 7.12502
rthumb 16.9998 -59.7012
lclavicle 4.66616e-014 9.44227e-016
lhumerus -26.7215 -8.32327 79.3253
lradius 32.2531
lwrist 14.7871
lhand -21.3856 -7.49223
lfingers 7.12502
lthumb 5.00206 22.4287
rfemur -34.4762 3.32993 -0.224169
rtibia 19.5126
rfoot -10.135 -9.01441
rtoes -32.3546
lfemur -17.1678 -7.23622 -19.6625
ltibia 29.3073
lfoot -23.0777 4.28179
ltoes -2.79609
679
root -3.57508 16.4953 -1.83286 -353.112 102.899 -369.134
lowerback -4.79716 1.64345 -7.25589
upperback -0.0959875 2.61013 -0.175606
thorax 2.27938 1.22988 4.05482
lowerneck -18.7497 7.14421 4.1309
upperneck 31.4766 13.1105 -7.69721
head 14.9187 5.41719 -1.32514
rclavicle 7.52586e-015 -1.03679e-014
rhumerus -30.1958 -10.0125 -78.6363
rradius 42.3182
rwrist -14.506
rhand -8.59687 -30.5674
rfingers 7.12502
rthumb 17.3345 -59.8144
lclavicle 7.52586e-015 -1.03679e-014
lhumerus -27.2427 -10.269 80.5669
lradius 34.2388
lwrist 15.1008
lhand -20.3588 -7.17894
lfingers 7.12502
lthumb 5.99343 22.7163
rfemur -34.3172 3.8963 -0.711072
rtibia 19.0756
rfoot -9.53063 -6.77508
rtoes -33.0019
lfemur -16.1469 -7.83985 -19.3597
ltibia 28.1331
lfoot -22.8811 4.0605
ltoes -2.99274
680
root -3.42763 16.5024 -1.77943 -352.666 104.222 -368.615
lowerback -5.06477 1.66691 -6.97535
upperback -0.220288 2.64507 -0.200503
thorax 2.30966 1.25326 3.88186
lowerneck -18.6384 7.0645 4.12938
upperneck 31.9077 13.0442 -7.48494
head 15.0655 5.42768 -1.2525
rclavicle 3.99557e-014 2.54693e-014
rhumerus -30.2499 -10.2261 -78.5129
rradius 42.1231
rwrist -14.5111
rhand -8.47667 -30.6519
rfingers 7.12502
rthumb 17.4501 -59.8886
lclavicle 3.99557e-014 2.54693e-014
lhumerus -27.8181 -11.767 81.7084
lradius 35.9325
lwrist 15.2897
lhand -19.5261 -8.17575
lfingers 7.12502
lthumb 6.79729 21.6951
rfemur -33.9929 4.23546 -0.90018
rtibia 19.0938
rfoot -8.5247 -4.62839
rtoes -32.5962
lfemur -15.1665 -8.5391 -18.9231
ltibia 27.0314
lfoot -22.492 3.80754
ltoes -3.03174
681
root -3.28091 16.5048 -1.70566 -352.835 105.842 -368.813
lowerback -5.31393 1.51544 -7.08256
upperback -0.309471 2.46663 -0.137499
thorax 2.37064 1.16375 4.00445
lowerneck -18.5176 7.07288 4.04991
upperneck 32.0847 13.1403 -7.42421
head 15.116 5.48089 -1.19685
rclavicle -5.95236e-014 2.08724e-015
rhumerus -30.0325 -10.1434 -78.3782
rradius 41.7111
rwrist -14.5074
rhand -8.66561 -31.1111
rfingers 7.12502
rthumb 17.2683 -60.3639
lclavicle -5.95236e-014 2.08724e-015
lhumerus -28.3491 -12.8858 82.889
lradius 37.6069
lwrist 15.569
lhand -18.9402 -9.36795
lfingers 7.12502
lthumb 7.36289 20.4839
rfemur -33.4524 4.12916 -0.919774
rtibia 19.4068
rfoot -7.49983 -2.86696
rtoes -30.4802
lfemur -14.4414 -9.50516 -18.5307
ltibia 26.0714
lfoot -21.9727 3.74152
ltoes -4.6604
682
root -3.12916 16.5063 -1.62196 -352.68 107.55 -368.808
lowerback -5.66737 1.31854 -7.22783
upperback -0.352171 2.238 0.00924134
thorax 2.54082 1.04272 4.23603
lowerneck -18.5589 7.05595 3.83196
upperneck 32.1319 13.2097 -7.38412
head 15.1318 5.49578 -1.12677
rclavicle 4.55465e-014 -1.0138e-014
rhumerus -29.7362 -10.0974 -78.1548
rradius 41.446
rwrist -14.5907
rhand -8.88899 -31.8336
rfingers 7.12502
rthumb 17.0533 -61.1051
lclavicle 4.55465e-014 -1.0138e-014
lhumerus -28.8202 -13.8292 84.1148
lradius 39.363
lwrist 15.9698
lhand -18.8331 -9.67828
lfingers 7.12502
lthumb 7.46629 20.17
rfemur -32.8699 3.90988 -0.716446
rtibia 20.0095
rfoot -7.22569 -1.88927
rtoes -25.2342
lfemur -13.9118 -10.4379 -17.9904
ltibia 25.2338
lfoot -21.6118 3.47276
ltoes -6.02811
683
root -2.96802 16.5087 -1.54145 -352.034 109.254 -368.241
lowerback -5.99997 1.13296 -7.07962
upperback -0.422133 2.00274 0.145244
thorax 2.68414 0.923442 4.28802
lowerneck -18.5509 7.06468 3.73472
upperneck 32.2242 13.2939 -7.35292
head 15.1691 5.53201 -1.07874
rclavicle 2.32578e-014 1.53064e-014
rhumerus -29.6845 -10.0587 -77.9883
rradius 41.3396
rwrist -14.6669
rhand -9.05103 -32.3196
rfingers 7.12502
rthumb 16.8973 -61.6045
lclavicle 2.32578e-014 1.53064e-014
lhumerus -29.4028 -14.5726 85.199
lradius 40.9972
lwrist 16.3962
lhand -18.7844 -9.95865
lfingers 7.12502
lthumb 7.5133 19.8879
rfemur -32.1401 3.45212 -0.127669
rtibia 20.8061
rfoot -7.86363 -1.30649
rtoes -20.4771
lfemur -13.3115 -11.2791 -17.2536
ltibia 24.4076
lfoot -21.2745 3.02111
ltoes -6.50674
